<svg xmlns="http://www.w3.org/2000/svg" shape-rendering="geometricPrecision" text-rendering="geometricPrecision" image-rendering="optimizeQuality" fill-rule="evenodd" clip-rule="evenodd" viewBox="0 0 512 488.783"><path fill="#2D2222" fill-rule="nonzero" d="M120.009 270.449l12.051-.014c63.731-.22 80.084-.266 144.202 39.975h52.865l.607.039c8.199.556 15.303 3.464 20.534 7.766 4.12 3.387 7.117 7.671 8.624 12.394 1.539 4.827 1.532 10.065-.369 15.239-2.039 5.543-6.262 11.001-13.1 15.714-10.245 7.504-22.03 11.037-34.651 12.373-12.143 1.284-25.049.511-38.085-.652-4.146-.202-6.802 1.433-7.954 3.645a6.503 6.503 0 00-.727 2.848 6.68 6.68 0 00.606 2.937c1.092 2.365 3.823 4.231 8.313 4.248l.329.014c3.377.249 7.065-.117 10.654-.464 2.851-.28 5.663-.557 8.494-.56 15.522-.011 29.622-1.483 41.658-5.966 11.593-4.315 21.385-11.5 28.832-23.019l7.983-18.636a4.658 4.658 0 012.235-2.362l80.598-39.96.61-.249c13.809-4.557 26.473-3.163 36.382 1.894 6.5 3.313 11.824 8.221 15.519 14.076 3.709 5.866 5.784 12.71 5.78 19.859-.003 10.115-4.146 20.807-13.653 30.198l-.536.454c-29.243 21.285-58.94 40.726-89.052 58.412-30.024 17.639-60.374 33.481-91.007 47.61-45.933 27.828-91.851 26.888-137.744.007l-59.998-30.928a16.68 16.68 0 01-4.904 11.795l-.529.479c-2.982 2.741-6.951 4.426-11.292 4.426H16.725c-4.585 0-8.76-1.88-11.792-4.905A16.588 16.588 0 010 437.32V268.736c0-4.582 1.883-8.763 4.922-11.802a16.577 16.577 0 0111.803-4.919h86.559a16.68 16.68 0 0111.817 4.905l.475.525c2.752 2.989 4.433 6.961 4.433 11.291v1.713z"/><path fill="#F6CD45" d="M317.148 0c75.35 0 136.432 61.082 136.432 136.432s-61.082 136.432-136.432 136.432-136.432-61.082-136.432-136.432S241.798 0 317.148 0z"/><path fill="#D19632" d="M317.148 23.867c62.168 0 112.565 50.397 112.565 112.565s-50.397 112.565-112.565 112.565S204.583 198.6 204.583 136.432 254.98 23.867 317.148 23.867z"/><path fill="#DBA47B" fill-rule="nonzero" d="M121.148 279.819v147.578l63.369 32.68c42.858 25.182 85.713 26.094 128.531.092l.568-.312a1027.695 1027.695 0 0090.411-47.27c29.629-17.405 58.983-36.62 88.02-57.738 7.377-7.401 10.604-15.608 10.604-23.261 0-5.337-1.56-10.462-4.348-14.873-2.794-4.43-6.862-8.164-11.852-10.707-7.773-3.964-17.827-5.032-28.966-1.429l-78.68 39.01-7.444 17.374-.365.677c-8.682 13.608-20.115 22.059-33.673 27.105-13.224 4.926-28.381 6.54-44.921 6.554-2.27 0-4.909.262-7.579.525-4.057.393-8.206.801-12.264.486-8.525-.146-13.99-4.348-16.451-9.675a15.95 15.95 0 01-1.45-7.061 15.946 15.946 0 011.79-6.972c2.71-5.195 8.345-9.079 16.679-8.667l.184.018c12.579 1.127 25.006 1.886 36.51.67 11.075-1.171 21.331-4.213 30.084-10.625l.128-.089c5.167-3.539 8.284-7.447 9.695-11.288 1.156-3.149 1.174-6.312.256-9.189-.951-2.982-2.919-5.748-5.653-7.996-3.781-3.107-9.033-5.221-15.204-5.643h-54.188a4.792 4.792 0 01-2.493-.734c-62.813-39.542-78.421-39.485-140.386-39.276l-10.912.036z"/><path fill="#43494C" d="M16.725 259.147h86.559c5.277 0 9.593 4.316 9.593 9.589V437.32c0 5.277-4.316 9.589-9.593 9.589H16.725c-5.277 0-9.593-4.312-9.593-9.589V268.736c0-5.273 4.316-9.589 9.593-9.589z"/><path fill="#34393E" d="M112.877 333.785v103.534c0 5.277-4.316 9.594-9.594 9.594H16.726c-5.277 0-9.594-4.317-9.594-9.594v-21.536l105.745-81.998z"/><path fill="#A87927" d="M268.421 176.849l-1.194-15.961 8.903-.544c2.68-.145 4.615-.78 5.808-1.899 1.194-1.122 1.794-2.985 1.794-5.591V99.105h19.978v53.423c0 14.909-8.071 22.838-24.215 23.78l-11.074.541zm69.257-2.068l-.897-.059a83.757 83.757 0 01-6.15-.588c-2.015-.273-3.947-.57-5.797-.903a73.352 73.352 0 01-5.388-1.182v-15.278c2.246.197 4.68.361 7.287.494 2.605.133 5.259.233 7.935.297 2.676.064 5.164.1 7.477.1.155-.005.322.003.48.003 1.671 0 3.337-.169 4.972-.497a6.605 6.605 0 003.262-1.608 3.99 3.99 0 001.086-2.968v-1.157a3.744 3.744 0 00-1.536-3.271 6.059 6.059 0 00-3.467-1.091h-5.4c-7.668 0-13.482-1.682-17.441-5.055-3.958-3.376-5.932-9.023-5.924-16.949v-3.271c0-7.263 2.185-12.704 6.546-16.307 3.235-2.688 7.555-4.373 12.955-5.053v-7.779h10.699v7.568c1.349.066 2.696.177 3.923.31 2.693.298 5.317.67 7.724 1.089 2.407.425 4.583.896 6.493 1.338v15.275c-3.034-.258-6.454-.469-10.255-.647-3.804-.172-7.263-.253-10.364-.239h-.3c-1.56 0-3.115.134-4.647.395a6.106 6.106 0 00-3.368 1.582 4.682 4.682 0 00-1.191 3.465v.999c-.003.106-.011.211-.011.319 0 1.317.572 2.571 1.569 3.44a7.675 7.675 0 004.858 1.28h6.541c.266-.005.544-.014.813-.014 3.737 0 7.424.908 10.733 2.64a17.177 17.177 0 016.935 7.186 22.027 22.027 0 012.332 9.85l-.002.402v3.276c0 6.275-1.091 11.069-3.271 14.373a16.042 16.042 0 01-9.317 6.685 45.913 45.913 0 01-9.217 1.558v8.512l-10.677-.003v-8.517z"/><path fill="#FCD553" d="M265.327 173.752l-1.194-15.961 8.903-.544c2.679-.144 4.614-.78 5.808-1.899 1.194-1.122 1.794-2.984 1.794-5.591V96.008h19.978v53.424c0 14.908-8.071 22.837-24.215 23.779l-11.074.541zm69.254-2.068l-.897-.059a83.862 83.862 0 01-6.15-.588 132.081 132.081 0 01-5.796-.903 73.38 73.38 0 01-5.389-1.182v-15.278c2.246.197 4.681.361 7.287.494 2.605.133 5.259.233 7.935.297 2.677.064 5.164.1 7.477.1.155-.005.322.003.48.003 1.671 0 3.337-.169 4.972-.497a6.605 6.605 0 003.262-1.608 3.99 3.99 0 001.086-2.967v-1.158a3.74 3.74 0 00-1.536-3.27 6.052 6.052 0 00-3.467-1.091h-5.4c-7.668 0-13.482-1.683-17.44-5.056-3.959-3.376-5.933-9.023-5.925-16.949v-3.271c0-7.262 2.185-12.704 6.547-16.307 3.234-2.688 7.554-4.373 12.954-5.053v-7.779h10.699v7.568c1.349.066 2.696.177 3.923.311 2.693.297 5.317.669 7.724 1.088 2.407.425 4.583.897 6.493 1.338v15.275c-3.034-.258-6.454-.469-10.255-.647a211.77 211.77 0 00-10.364-.239h-.3c-1.56 0-3.115.134-4.647.395a6.106 6.106 0 00-3.368 1.582 4.687 4.687 0 00-1.191 3.465v1c-.003.105-.011.21-.011.319 0 1.316.572 2.57 1.569 3.44a7.685 7.685 0 004.858 1.279h6.541c.267-.005.544-.014.814-.014 3.736 0 7.423.908 10.732 2.641a17.174 17.174 0 016.935 7.185 22.028 22.028 0 012.333 9.85c0 .136-.003.277-.003.403v3.276c0 6.274-1.091 11.068-3.271 14.372a16.038 16.038 0 01-9.317 6.685 45.913 45.913 0 01-9.217 1.558v8.512l-10.677-.003v-8.517z"/></svg>